<?xml version="1.0" encoding="UTF-8"?>
<svg version="1.1" xmlns="http://www.w3.org/2000/svg" width="1000" height="202">
<path d="M0,0 L71,0 L82,12 L91,23 L104,38 L113,49 L126,64 L135,75 L147,89 L155,99 L154,103 L143,116 L132,129 L121,142 L110,155 L99,168 L90,179 L77,194 L71,201 L0,201 L6,193 L18,179 L29,166 L40,153 L51,140 L62,127 L73,114 L82,103 L84,100 L71,85 L60,72 L49,59 L38,46 L27,33 L16,20 L5,7 Z " fill="#55A781" transform="translate(845,0)"/>
<path d="M0,0 L62,0 L78,4 L88,9 L98,18 L103,26 L106,35 L107,41 L107,55 L104,70 L99,82 L92,91 L83,100 L71,107 L55,112 L50,113 L-22,113 L-21,104 Z M28,26 L23,50 L16,85 L16,87 L43,87 L56,83 L65,76 L71,66 L73,60 L74,47 L71,37 L67,32 L57,27 L52,26 Z " fill="#055185" transform="translate(722,2)"/>
<path d="M0,0 L27,0 L41,4 L53,11 L60,18 L66,28 L69,37 L70,43 L70,58 L67,72 L62,84 L54,95 L46,103 L33,111 L18,116 L4,118 L-6,118 L-20,116 L-33,111 L-44,103 L-51,94 L-56,83 L-57,78 L-57,55 L-54,43 L-47,29 L-38,18 L-26,9 L-13,3 Z M4,27 L-6,31 L-14,37 L-20,46 L-23,53 L-24,58 L-24,72 L-20,81 L-13,87 L-5,90 L9,90 L19,86 L27,79 L31,74 L36,62 L37,48 L34,39 L27,31 L17,27 Z " fill="#055185" transform="translate(507,0)"/>
<path d="M0,0 L61,0 L73,3 L82,8 L87,13 L91,18 L94,25 L95,30 L95,43 L92,55 L86,65 L79,72 L65,80 L80,107 L83,113 L48,113 L35,90 L32,85 L32,83 L17,84 L11,113 L-22,113 L-21,104 Z M28,26 L22,54 L22,58 L45,58 L54,55 L60,48 L62,42 L61,34 L56,28 L51,26 Z " fill="#055185" transform="translate(603,2)"/>
<path d="M0,0 L61,0 L73,3 L82,8 L88,13 L94,25 L95,29 L95,44 L91,57 L85,66 L78,73 L65,80 L79,105 L83,113 L48,113 L34,88 L32,83 L17,83 L12,110 L11,113 L-22,113 L-20,100 Z M28,26 L22,54 L22,58 L45,58 L54,55 L60,49 L62,43 L62,36 L59,30 L51,26 Z " fill="#055185" transform="translate(23,2)"/>
<path d="M0,0 L90,0 L85,25 L28,25 L26,38 L25,43 L74,43 L73,53 L70,68 L19,68 L18,78 L16,88 L74,88 L73,98 L70,112 L69,113 L-22,113 L-20,100 Z " fill="#055185" transform="translate(142,2)"/>
<path d="M0,0 L36,0 L51,30 L56,25 L63,18 L72,7 L79,0 L116,0 L114,4 L107,11 L100,19 L86,34 L79,42 L66,56 L74,72 L87,96 L96,112 L96,113 L60,113 L50,94 L44,83 L44,81 L39,86 L29,97 L20,108 L15,113 L-25,113 L-19,106 L-7,93 L4,81 L16,68 L27,56 L28,54 L16,31 L4,9 Z " fill="#055185" transform="translate(240,2)"/>
<path d="M0,0 L89,0 L88,9 L84,25 L28,25 L24,47 L23,49 L73,49 L68,75 L18,75 L13,102 L11,112 L10,113 L-23,113 L-3,12 Z " fill="#055185" transform="translate(365,2)"/>
<path d="M0,0 L71,0 L82,12 L91,23 L104,38 L113,49 L121,58 L115,66 L102,81 L93,92 L86,100 L82,98 L71,85 L60,72 L49,59 L38,46 L27,33 L16,20 L5,7 Z " fill="#055185" transform="translate(845,0)"/>
<path d="M0,0 L1,0 L1,83 L-8,94 L-10,96 L-81,96 L-75,88 L-63,74 L-52,61 L-41,48 L-30,35 L-19,22 L-8,9 L-1,1 Z " fill="#2F896B" transform="translate(926,105)"/>
<path d="M0,0 L10,0 L15,11 L21,26 L21,29 L26,24 L36,11 L45,0 L56,0 L48,42 L46,50 L34,50 L38,28 L38,25 L26,41 L23,45 L17,45 L12,35 L8,25 L6,31 L2,50 L-10,50 L-8,37 L-1,2 Z " fill="#169B6C" transform="translate(182,152)"/>
<path d="M0,0 L10,0 L21,26 L21,29 L23,29 L25,25 L36,11 L44,1 L45,0 L55,0 L54,11 L46,50 L34,50 L36,37 L38,25 L28,38 L23,45 L16,45 L8,25 L6,31 L2,50 L-10,50 L-8,37 L-1,2 Z " fill="#169B6C" transform="translate(116,152)"/>
<path d="M0,0 L13,1 L21,5 L26,11 L28,17 L28,27 L25,36 L21,42 L14,48 L6,51 L-11,51 L-20,47 L-24,42 L-27,34 L-27,25 L-24,16 L-20,10 L-13,4 L-6,1 Z M-1,11 L-9,15 L-14,23 L-14,34 L-10,39 L-5,41 L2,41 L10,37 L15,29 L15,18 L11,13 L7,11 Z " fill="#169B6C" transform="translate(76,151)"/>
<path d="M0,0 L26,0 L34,3 L39,8 L40,10 L40,22 L37,28 L30,34 L27,34 L35,48 L35,50 L22,50 L15,38 L15,36 L6,36 L4,48 L3,50 L-9,50 L-8,40 Z M11,10 L8,23 L8,26 L21,26 L26,23 L28,19 L27,13 L25,11 L21,10 Z " fill="#169B6C" transform="translate(294,152)"/>
<path d="M0,0 L38,0 L36,10 L10,10 L9,20 L31,20 L30,28 L29,29 L7,30 L5,40 L31,40 L29,50 L-10,50 L-5,23 Z " fill="#169B6C" transform="translate(248,152)"/>
<path d="M0,0 L25,0 L34,3 L39,9 L40,12 L40,20 L37,28 L30,34 L24,36 L5,36 L4,46 L3,50 L-10,50 Z M11,10 L9,16 L8,26 L21,26 L27,21 L27,14 L24,11 L21,10 Z " fill="#169B6C" transform="translate(636,152)"/>
<path d="M0,0 L12,0 L15,9 L24,46 L24,50 L12,50 L10,43 L10,39 L-12,40 L-18,50 L-31,50 L-29,45 L-19,29 L-6,9 Z M3,14 L-6,29 L-6,30 L8,30 L4,14 Z " fill="#169B6C" transform="translate(434,152)"/>
<path d="M0,0 L13,0 L25,49 L25,50 L12,50 L10,39 L-12,39 L-14,44 L-18,50 L-31,50 L-29,45 L-16,25 L-5,8 Z M4,14 L-3,24 L-6,30 L8,30 L5,14 Z " fill="#169B6C" transform="translate(764,152)"/>
<path d="M0,0 L13,0 L24,45 L24,50 L12,50 L10,39 L-12,39 L-14,44 L-18,50 L-31,50 L-29,45 L-13,20 Z M4,14 L-3,24 L-6,30 L8,30 L5,14 Z " fill="#169B6C" transform="translate(598,152)"/>
<path d="M0,0 L13,1 L19,4 L23,8 L23,11 L15,17 L10,13 L7,12 L-1,12 L-9,16 L-13,23 L-13,34 L-8,39 L-5,40 L2,40 L10,36 L13,36 L19,43 L12,49 L7,51 L-11,51 L-21,46 L-26,38 L-27,34 L-27,25 L-24,15 L-15,5 L-6,1 Z " fill="#169B6C" transform="translate(552,151)"/>
<path d="M0,0 L13,1 L19,4 L23,8 L22,12 L15,17 L13,16 L13,14 L7,12 L-1,12 L-9,16 L-13,24 L-13,34 L-8,39 L-5,40 L2,40 L10,36 L13,36 L19,43 L12,49 L7,51 L-11,51 L-21,46 L-26,38 L-27,34 L-27,25 L-23,14 L-16,6 L-6,1 Z " fill="#169B6C" transform="translate(364,151)"/>
<path d="M0,0 L7,0 L17,3 L22,7 L23,10 L15,17 L13,17 L9,13 L6,12 L-2,12 L-8,15 L-12,20 L-14,24 L-14,33 L-11,38 L-6,40 L2,40 L8,37 L11,35 L18,42 L16,46 L6,51 L-12,51 L-20,47 L-26,40 L-27,37 L-27,22 L-24,14 L-17,6 L-9,2 Z " fill="#169B6C" transform="translate(27,151)"/>
<path d="M0,0 L44,0 L42,10 L26,10 L25,20 L19,49 L18,50 L6,50 L8,37 L13,12 L14,10 L-1,10 Z " fill="#169B6C" transform="translate(703,152)"/>
<path d="M0,0 L12,0 L11,10 L5,40 L29,40 L27,50 L-10,50 L-8,37 L-1,2 Z " fill="#169B6C" transform="translate(472,152)"/>
<path d="M0,0 L13,0 L8,26 L5,40 L29,40 L27,50 L-9,50 L-8,39 Z " fill="#169B6C" transform="translate(802,152)"/>
<path d="M0,0 L12,0 L11,11 L3,50 L-10,50 L-5,23 Z " fill="#169B6C" transform="translate(686,152)"/>
<path d="M0,0 L12,0 L11,11 L3,50 L-10,50 Z " fill="#169B6C" transform="translate(396,152)"/>
</svg>
